# xmcd
#
# Track frame offsets:
# 150
# 16732
# 43704
# 61052
# 81657
# 104370
# 132612
# 171204
# 211653
# 236758
# 257229
# 284387
# 304676
# 340188
#
# Disc length: 4796 seconds
#
#
# Revision: 1
# Processed by: cddbd v1.5.2PL0 Copyright (c) Steve Scherf et al.
# Submitted via: FreeRIP 2.52 
#
DISCID=c812ba0e
DTITLE=Eric Clapton - One More Car, One More Rider - Live On Tour
DYEAR=2002
DGENRE=Blues
TTITLE0=key to the highway
TTITLE1=reptile
TTITLE2=get you on my mind
TTITLE3=tears in heaven
TTITLE4=bell bottom blues
TTITLE5=change the world
TTITLE6=fathers eyes
TTITLE7=river of tears
TTITLE8=going down slow
TTITLE9=i want a little girl
TTITLE10=badge
TTITLE11=hootche coochie man
TTITLE12=have you ever loved a woman
TTITLE13=cocaine
EXTD=YEAR: 2002
EXTT0=
EXTT1=
EXTT2=
EXTT3=
EXTT4=
EXTT5=
EXTT6=
EXTT7=
EXTT8=
EXTT9=
EXTT10=
EXTT11=
EXTT12=
EXTT13=
PLAYORDER=
